<?xml version="1.0" encoding="UTF-8" standalone="no"?>
<svg
   xmlns:dc="http://purl.org/dc/elements/1.1/"
   xmlns:cc="http://creativecommons.org/ns#"
   xmlns:rdf="http://www.w3.org/1999/02/22-rdf-syntax-ns#"
   xmlns:svg="http://www.w3.org/2000/svg"
   xmlns="http://www.w3.org/2000/svg"
   xmlns:sodipodi="http://sodipodi.sourceforge.net/DTD/sodipodi-0.dtd"
   xmlns:inkscape="http://www.inkscape.org/namespaces/inkscape"
   version="1.0"
   width="74mm"
   height="16mm"
   id="svg17"
   sodipodi:docname="logo-black (1).emf">
  <metadata
     id="metadata21">
    <rdf:RDF>
      <cc:Work
         rdf:about="">
        <dc:format>image/svg+xml</dc:format>
        <dc:type
           rdf:resource="http://purl.org/dc/dcmitype/StillImage" />
      </cc:Work>
    </rdf:RDF>
  </metadata>
  <sodipodi:namedview
     pagecolor="#ffffff"
     bordercolor="#666666"
     borderopacity="1"
     objecttolerance="10"
     gridtolerance="10"
     guidetolerance="10"
     inkscape:pageopacity="0"
     inkscape:pageshadow="2"
     inkscape:window-width="640"
     inkscape:window-height="480"
     id="namedview19" />
  <defs
     id="defs3">
    <pattern
       id="EMFhbasepattern"
       patternUnits="userSpaceOnUse"
       width="6"
       height="6"
       x="0"
       y="0" />
  </defs>
  <path
     style="fill:#000000;fill-rule:nonzero;fill-opacity:1;stroke:none;"
     d="  M 15.679884,25.359812   C 18.399864,25.359812 20.719847,26.559803 22.239835,28.479789   C 22.399834,28.719787 22.799831,28.799787 23.119829,28.639788   L 27.839794,25.999807   C 28.159791,25.759809 28.239791,25.279813 28.079792,24.959815   C 25.359812,21.279842 20.879845,19.039859 15.679884,19.039859   C 7.1199473,18.95986 0.31999763,25.59981 0.47999644,34.079748   C 0.31999763,42.479685 7.1199473,49.199636 15.679884,49.039637   C 20.879845,49.039637 25.359812,46.799653 28.079792,43.119681   C 28.239791,42.799683 28.159791,42.319687 27.839794,42.079688   L 23.119829,39.439708   C 22.799831,39.19971 22.479833,39.359708 22.239835,39.599707   C 20.799846,41.599692 18.479863,42.639684 15.759883,42.639684   C 13.279902,42.639684 11.279916,41.83969 9.7599277,40.159703   C 8.0799401,38.399716 7.3599455,36.239732 7.5199443,33.519752   C 7.5999437,29.039785 11.199917,25.359812 15.679884,25.359812   z "
     id="path5" />
  <path
     style="fill:#000000;fill-rule:nonzero;fill-opacity:1;stroke:none;"
     d="  M 59.519559,19.759854   L 53.599603,19.759854   C 53.199606,19.759854 52.959608,20.079851 52.959608,20.479848   L 52.959608,23.759824   C 51.039622,20.639847 47.599647,19.039859 43.599677,19.039859   C 35.679736,18.87986 29.599781,25.67981 29.67978,33.999748   C 29.67978,42.479685 35.599736,49.039637 43.599677,49.039637   C 47.599647,49.039637 51.039622,47.439649 52.959608,44.239672   L 52.959608,47.599647   C 52.959608,47.999644 53.199606,48.319642 53.599603,48.319642   L 59.519559,48.319642   C 59.919556,48.319642 60.239554,47.999644 60.239554,47.599647   L 60.239554,20.479848   C 60.239554,20.079851 59.919556,19.759854 59.519559,19.759854   z  M 44.799668,42.719684   C 39.919704,42.719684 36.639729,38.959711 36.639729,33.999748   C 36.639729,31.519767 37.359723,29.519781 38.879712,27.839794   C 40.399701,26.159806 42.399686,25.359812 44.799668,25.359812   C 49.519633,25.359812 52.879608,28.799787 52.879608,33.999748   C 52.959608,39.279709 49.519633,42.719684 44.799668,42.719684   z "
     id="path7" />
  <path
     style="fill:#000000;fill-rule:nonzero;fill-opacity:1;stroke:none;"
     d="  M 78.879416,25.359812   C 81.599396,25.359812 83.919378,26.559803 85.439367,28.479789   C 85.679365,28.719787 85.999363,28.799787 86.319361,28.639788   L 91.039326,25.999807   C 91.359323,25.759809 91.519322,25.279813 91.279324,24.959815   C 88.559344,21.279842 84.079377,19.039859 78.959415,19.039859   C 70.399479,18.95986 63.599529,25.59981 63.759528,34.079748   C 63.599529,42.479685 70.399479,49.199636 78.959415,49.039637   C 84.079377,49.039637 88.559344,46.799653 91.279324,43.119681   C 91.519322,42.799683 91.439323,42.319687 91.039326,42.079688   L 86.39936,39.439708   C 86.079362,39.19971 85.679365,39.359708 85.439367,39.599707   C 83.999378,41.599692 81.679395,42.639684 78.959415,42.639684   C 76.479433,42.639684 74.559448,41.83969 72.95946,40.159703   C 71.359471,38.399716 70.639477,36.239732 70.719476,33.519752   C 70.879475,29.039785 74.399449,25.359812 78.879416,25.359812   z "
     id="path9" />
  <path
     style="fill:#000000;fill-rule:nonzero;fill-opacity:1;stroke:none;"
     d="  M 111.11918,18.95986   C 107.11921,18.95986 103.75923,20.959845 102.15924,23.839823   L 102.15924,9.1199324   C 102.15924,8.7199354 101.83925,8.4799372 101.43925,8.4799372   L 95.599292,8.4799372   C 95.199295,8.4799372 94.879297,8.7199354 94.879297,9.1199324   L 94.879297,47.599647   C 94.879297,47.999644 95.199295,48.319642 95.599292,48.319642   L 101.43925,48.319642   C 101.83925,48.319642 102.15924,47.999644 102.15924,47.599647   L 102.15924,33.359753   C 102.15924,28.559788 105.19922,25.279813 109.43919,25.279813   C 113.59916,25.279813 115.83914,27.839794 115.83914,32.719758   L 115.83914,47.599647   C 115.83914,47.999644 116.15914,48.319642 116.55914,48.319642   L 122.47909,48.319642   C 122.87909,48.319642 123.19909,47.999644 123.19909,47.599647   L 123.19909,32.159762   C 123.11909,23.839823 118.55912,18.95986 111.11918,18.95986   z "
     id="path11" />
  <path
     style="fill:#000000;fill-rule:nonzero;fill-opacity:1;stroke:none;"
     d="  M 141.43895,18.95986   C 132.95902,18.95986 126.63906,25.439812 126.63906,33.999748   C 126.63906,42.559685 133.11901,49.039637 142.31895,49.039637   C 147.59891,49.039637 152.31887,46.799653 154.95885,43.359679   C 155.19885,43.039681 155.11885,42.559685 154.79885,42.399686   L 150.31889,39.599707   C 150.07889,39.439708 149.67889,39.519707 149.43889,39.759705   C 147.9189,41.679691 145.19892,42.879682 142.31895,42.879682   C 137.91898,42.879682 134.639,40.639699 133.67901,36.559729   L 155.43885,36.559729   C 155.83885,36.559729 156.15884,36.239732 156.15884,35.839735   C 156.15884,34.959741 156.23884,34.079748 156.23884,33.359753   C 156.23884,24.879816 149.91889,18.95986 141.43895,18.95986   z  M 133.75901,31.439767   C 134.559,27.359797 137.67898,25.039815 141.51895,25.039815   C 145.91892,25.039815 148.8789,27.599796 149.27889,31.439767   z "
     id="path13" />
  <path
     style="fill:#000000;fill-rule:nonzero;fill-opacity:1;stroke:none;"
     d="  M 195.35855,48.239643   C 195.35855,49.91963 193.99856,51.27962 192.31858,51.27962   C 190.63859,51.27962 189.2786,49.91963 189.2786,48.239643   L 189.2786,13.5199   C 189.2786,6.3999526 183.59864,0.47999644 176.47869,0.39999704   C 169.19875,0.31999763 163.27879,6.1599544 163.27879,13.359901   L 163.27879,19.759854   L 157.83883,19.759854   C 157.43883,19.759854 157.19884,20.079851 157.19884,20.479848   L 157.19884,25.359812   C 157.19884,25.759809 157.43883,26.079807 157.83883,26.079807   L 163.27879,26.079807   L 163.27879,47.599647   C 163.27879,47.999644 163.59879,48.319642 163.99879,48.319642   L 169.83874,48.319642   C 170.23874,48.319642 170.55874,47.999644 170.55874,47.599647   L 170.55874,26.079807   L 177.51869,26.079807   C 177.91868,26.079807 178.23868,25.759809 178.23868,25.359812   L 178.23868,20.479848   C 178.23868,20.079851 177.91868,19.759854 177.51869,19.759854   L 170.55874,19.759854   L 170.55874,12.639906   C 170.55874,9.4399301 173.19872,6.7199502 176.39869,6.7999496   C 179.51867,6.879949 181.99865,9.3599307 181.99865,12.559907   L 181.99865,47.19965   C 181.99865,52.799609 186.47862,57.519574 192.15858,57.599573   C 197.91853,57.759572 202.5585,53.119607 202.5585,47.439649   L 202.5585,47.039652   C 204.87848,48.399641 207.59846,49.119636 210.55844,49.119636   C 219.35838,49.119636 225.75833,42.639684 225.75833,34.079748   L 225.75833,19.919852   C 225.75833,18.239865 227.11832,16.879875 228.79831,16.879875   C 230.47829,16.879875 231.83828,18.239865 231.83828,19.919852   L 231.83828,35.999733   C 231.83828,43.19968 237.67824,49.199636 244.87819,49.199636   C 248.55816,49.119636 251.83813,47.599647 254.15812,45.199665   C 256.4781,47.599647 259.75808,49.119636 263.43805,49.199636   C 270.638,49.199636 276.55795,43.19968 276.55795,35.999733   L 276.55795,21.359842   C 276.55795,20.959845 276.23795,20.719847 275.83796,20.719847   L 269.998,20.719847   C 269.598,20.719847 269.27801,20.959845 269.27801,21.359842   L 269.27801,36.719728   C 269.27801,39.999704 266.63802,42.719684 263.43805,42.639684   C 260.31807,42.559685 257.75809,39.999704 257.75809,36.879727   L 257.75809,36.159732   L 257.75809,21.359842   C 257.75809,20.959845 257.51809,20.719847 257.1181,20.719847   L 251.27814,20.719847   C 250.87814,20.719847 250.55814,20.959845 250.55814,21.359842   L 250.55814,36.719728   C 250.55814,39.999704 247.91816,42.719684 244.71819,42.639684   C 241.59821,42.559685 239.03823,39.999704 239.03823,36.879727   L 239.03823,20.879845   C 239.03823,15.279887 234.55826,10.559922 228.9583,10.399923   C 223.19835,10.399923 218.55838,14.959889 218.55838,20.719847   L 218.55838,21.119844   C 216.2384,19.759854 213.51842,18.95986 210.55844,18.95986   C 201.9985,18.87986 195.19855,25.59981 195.35855,33.999748   z  M 216.4784,40.159703   C 214.95841,41.83969 212.95842,42.639684 210.55844,42.639684   C 208.07846,42.639684 206.07847,41.83969 204.55848,40.159703   C 202.9585,38.399716 202.1585,36.239732 202.3185,33.439752   C 202.4785,28.959785 206.15847,25.279813 210.63844,25.359812   C 215.5184,25.439812 218.87838,29.199784 218.87838,33.999748   C 218.87838,36.559729 218.07838,38.559714 216.4784,40.159703   z "
     id="path15" />
</svg>
